<svg xmlns="http://www.w3.org/2000/svg" viewBox="0 0 512 512">
  <rect width="512" height="512" rx="96" fill="#0f6b5f"/>
  <path fill="#f2d46b" d="M96 154h320v226a42 42 0 0 1-42 42H138a42 42 0 0 1-42-42V154Z"/>
  <path fill="#ffffff" d="M138 90h236a42 42 0 0 1 42 42v52H96v-52a42 42 0 0 1 42-42Z"/>
  <circle cx="176" cy="282" r="52" fill="#0f6b5f"/>
  <path fill="#f2d46b" d="M198 235a52 52 0 1 0 0 94 64 64 0 1 1 0-94Z"/>
  <rect x="274" y="238" width="94" height="24" rx="12" fill="#0f6b5f"/>
  <rect x="274" y="292" width="70" height="24" rx="12" fill="#0f6b5f"/>
</svg>
